<svg xmlns="http://www.w3.org/2000/svg" xmlns:xlink="http://www.w3.org/1999/xlink" width="600" viewBox="0 0 600 300" height="300" version="1.0"><defs><g id="a"><path d="M 10 -10 L 10 -20 L 0 -20 L 0 -30 L 20 -30 L 20 -20 L 50 -20 L 50 -40 L 10 -40 L 10 -50 L 0 -50 L 0 -70 L 10 -70 L 10 -80 L 60 -80 L 60 -70 L 70 -70 L 70 -60 L 50 -60 L 50 -70 L 20 -70 L 20 -50 L 60 -50 L 60 -40 L 70 -40 L 70 -20 L 60 -20 L 60 -10 Z M 10 -10"/></g><g id="b"><path d="M 0 -10 L 0 -80 L 60 -80 L 60 -70 L 70 -70 L 70 -40 L 50 -40 L 50 -30 L 60 -30 L 60 -20 L 70 -20 L 70 -10 L 40 -10 L 40 -20 L 30 -20 L 30 -30 L 20 -30 L 20 -10 Z M 20 -40 L 40 -40 L 40 -50 L 50 -50 L 50 -70 L 20 -70 Z M 20 -40"/></g><g id="c"><path d="M 10 -10 L 10 -20 L 0 -20 L 0 -70 L 10 -70 L 10 -80 L 60 -80 L 60 -70 L 70 -70 L 70 -20 L 60 -20 L 60 -10 Z M 20 -20 L 50 -20 L 50 -70 L 20 -70 Z M 20 -20"/></g><g id="d"><path d="M 10 -10 L 10 -80 L 30 -80 L 30 -20 L 70 -20 L 70 -10 Z M 10 -10"/></g><g id="e"><path d="M 20 -10 L 20 -20 L 10 -20 L 10 -30 L 0 -30 L 0 -60 L 10 -60 L 10 -70 L 20 -70 L 20 -80 L 60 -80 L 60 -70 L 70 -70 L 70 -60 L 50 -60 L 50 -70 L 30 -70 L 30 -60 L 20 -60 L 20 -30 L 30 -30 L 30 -20 L 50 -20 L 50 -30 L 70 -30 L 70 -20 L 60 -20 L 60 -10 Z M 20 -10"/></g></defs><g fill="#FF0040"><use x="59.998" y="189.405" xmlns:xlink="http://www.w3.org/1999/xlink" xlink:href="#a" xlink:type="simple" xlink:actuate="onLoad" xlink:show="embed"/></g><g fill="#00FF45"><use x="139.998" y="189.405" xmlns:xlink="http://www.w3.org/1999/xlink" xlink:href="#b" xlink:type="simple" xlink:actuate="onLoad" xlink:show="embed"/></g><g fill="#D5FF00"><use x="219.997" y="189.405" xmlns:xlink="http://www.w3.org/1999/xlink" xlink:href="#c" xlink:type="simple" xlink:actuate="onLoad" xlink:show="embed"/></g><g fill="#5000FF"><use x="299.997" y="189.405" xmlns:xlink="http://www.w3.org/1999/xlink" xlink:href="#d" xlink:type="simple" xlink:actuate="onLoad" xlink:show="embed"/></g><g fill="#5000FF"><use x="379.997" y="189.405" xmlns:xlink="http://www.w3.org/1999/xlink" xlink:href="#c" xlink:type="simple" xlink:actuate="onLoad" xlink:show="embed"/></g><g fill="#00FF45"><use x="459.997" y="189.405" xmlns:xlink="http://www.w3.org/1999/xlink" xlink:href="#e" xlink:type="simple" xlink:actuate="onLoad" xlink:show="embed"/></g></svg>